<?xml version="1.0" standalone="no"?><!-- Generator: Gravit.io --><svg xmlns="http://www.w3.org/2000/svg" xmlns:xlink="http://www.w3.org/1999/xlink" style="isolation:isolate" viewBox="0 0 16 16" width="16" height="16"><defs><clipPath id="_clipPath_h9BrfZvhYMsx3ZLJgl0sO8ZRTEDk2yBg"><rect width="16" height="16"/></clipPath></defs><g clip-path="url(#_clipPath_h9BrfZvhYMsx3ZLJgl0sO8ZRTEDk2yBg)"><rect x="0.775" y="1" width="4.902" height="4.902" transform="matrix(1,0,0,1,0,0)" fill="rgb(195,207,217)"/><line x1="6.775" y1="5.549" x2="6.775" y2="7"/><rect x="6.775" y="1" width="4.902" height="4.902" transform="matrix(1,0,0,1,0,0)" fill="rgb(195,207,217)"/><rect x="0.775" y="7" width="11" height="4.902" transform="matrix(1,0,0,1,0,0)" fill="rgb(195,207,217)"/><rect x="12.775" y="1" width="2.451" height="10.902" transform="matrix(1,0,0,1,0,0)" fill="rgb(195,207,217)"/><rect x="6.775" y="13" width="8.451" height="2" transform="matrix(1,0,0,1,0,0)" fill="rgb(195,207,217)"/><rect x="0.775" y="13" width="4.902" height="2" transform="matrix(1,0,0,1,0,0)" fill="rgb(195,207,217)"/></g></svg>